<?xml version="1.0" encoding="iso-8859-1"?>
<!-- Uploaded to: SVG Repo, www.svgrepo.com, Generator: SVG Repo Mixer Tools -->
<svg height="800px" width="800px" version="1.1" id="Layer_1" xmlns="http://www.w3.org/2000/svg" xmlns:xlink="http://www.w3.org/1999/xlink" 
	 viewBox="0 0 512.001 512.001" xml:space="preserve">
<path style="fill:#F8F8F8;" d="M319.167,120.142V41.147H192.834v78.995C112.767,146.645,54.933,221.977,54.933,310.934
	c0,111.046,90.019,201.068,201.068,201.068s201.068-90.021,201.068-201.068C457.067,221.975,399.235,146.644,319.167,120.142z"/>
<path style="fill:#E1E1E4;" d="M328.113,40.722H183.887c-11.246,0-20.361-9.115-20.361-20.361l0,0
	C163.526,9.115,172.642,0,183.887,0h144.225c11.246,0,20.361,9.115,20.361,20.361l0,0C348.474,31.607,339.358,40.722,328.113,40.722
	z"/>
<path style="fill:#77DD00;" d="M384.107,321.114c-49.477-9.409-51.674-22.369-90.353-26.724
	c-53.289-6.001-67.139,16.574-128.531,24.178c-16.002,1.982-48.135,5.894-81.038,2.103c5.08,90.607,79.939,162.57,171.813,162.57
	c89.384,0,162.85-68.067,171.446-155.193C412.486,326.403,397.593,323.678,384.107,321.114z"/>
<path style="fill:#A6F900;" d="M115.438,322.255c-9.988,0.062-20.578-0.353-31.253-1.583
	c4.592,81.877,66.163,148.523,145.78,160.608C170.295,449.593,126.919,391.327,115.438,322.255z"/>
<path style="fill:#00C800;" d="M384.105,321.113c-0.705-0.134-1.368-0.271-2.055-0.407c-8.402,72.965-55.524,134.134-120.305,162.43
	c86.766-2.846,157.287-69.838,165.697-155.086C412.486,326.403,397.593,323.678,384.105,321.113z"/>
<g>
	<circle style="fill:#77DD00;" cx="280.387" cy="228.03" r="21.209"/>
	<circle style="fill:#77DD00;" cx="332.355" cy="269.996" r="16.119"/>
	<circle style="fill:#77DD00;" cx="329.237" cy="186.505" r="16.167"/>
</g>
</svg>